<?xml version="1.0" encoding="UTF-8"?>
<svg version="1.1" xmlns="http://www.w3.org/2000/svg" width="35" height="21">
<path d="M0 0 C4.58578817 1.27781077 7.13926617 4.14246719 10.375 7.5234375 C11.01566406 8.14927734 11.65632813 8.77511719 12.31640625 9.41992188 C16.89425164 14.08073462 16.89425164 14.08073462 17.4140625 17.79296875 C17.27742188 18.46714844 17.14078125 19.14132813 17 19.8359375 C14.86328125 20.67578125 14.86328125 20.67578125 12 20.8359375 C9.78736625 19.07120532 8.06247277 17.46866778 6.1875 15.3984375 C5.68541016 14.86927734 5.18332031 14.34011719 4.66601562 13.79492188 C3.43004832 12.48832786 2.21311405 11.16377687 1 9.8359375 C-3.67422038 11.75438169 -6.37855026 15.33925544 -9.68359375 19.03515625 C-12 20.8359375 -12 20.8359375 -14.78515625 20.60546875 C-15.88150391 20.22455078 -15.88150391 20.22455078 -17 19.8359375 C-17.4140625 17.79296875 -17.4140625 17.79296875 -17 14.8359375 C-15.07851412 12.10958825 -12.75579309 9.84914182 -10.375 7.5234375 C-9.75753906 6.87826172 -9.14007812 6.23308594 -8.50390625 5.56835938 C-5.73806513 2.81707531 -3.79733602 1.05811186 0 0 Z " fill="#EFF7FF" transform="translate(17,-0.8359375)"/>
</svg>
